<svg width="800" height="800" viewBox="0 0 800 800" fill="none" xmlns="http://www.w3.org/2000/svg">
<g stroke-width="2" stroke-linejoin="round" stroke-linecap="round" stroke-opacity="0.5">
<path d="M306.497 78.6042C304.061 76.8907 301.405 75.4648 298.562 74.3829C296.371 73.5511 294.078 72.932 291.706 72.5317C289.677 72.1878 287.59 71.9939 285.458 72.0001C283.364 72.0001 281.316 72.1878 279.32 72.5255C276.948 72.9257 274.654 73.5323 272.47 74.3578C269.621 75.4335 266.959 76.8594 264.523 78.5667C261.214 80.8806 258.32 83.7199 256 86.9719C258.32 90.2301 261.202 93.0756 264.503 95.3958C266.939 97.1093 269.595 98.5352 272.438 99.6171C274.629 100.449 276.922 101.068 279.294 101.468C281.323 101.812 283.41 102.006 285.542 102C287.636 102 289.684 101.812 291.68 101.475C294.052 101.074 296.346 100.468 298.53 99.6422C301.379 98.5665 304.041 97.1406 306.477 95.4333C309.786 93.1194 312.68 90.2801 315 87.0281C312.68 83.7699 309.798 80.9244 306.497 78.6042ZM285.497 93.1006C282.014 93.1006 279.19 90.3677 279.19 86.9969C279.19 83.626 282.014 80.8931 285.497 80.8931C288.98 80.8931 291.803 83.626 291.803 86.9969C291.803 90.3677 288.98 93.1006 285.497 93.1006Z" stroke="#01F5AC" />
<path d="M830.427 295.616C828.114 292.289 825.386 289.228 822.258 286.52C819.848 284.435 817.206 282.575 814.363 280.958C811.931 279.573 809.355 278.352 806.628 277.367C803.953 276.392 801.249 275.678 798.541 275.179C795.324 274.587 792.111 274.294 788.935 274.333C784.793 274.381 780.727 274.965 776.818 276.014C771.513 277.432 766.49 279.716 762.01 282.795C763.453 288.043 765.808 293.026 768.944 297.532C771.257 300.858 773.985 303.919 777.113 306.628C779.523 308.712 782.165 310.573 785.008 312.189C787.44 313.575 790.016 314.795 792.743 315.78C795.418 316.755 798.122 317.47 800.83 317.968C804.047 318.561 807.26 318.853 810.436 318.815C814.578 318.766 818.644 318.183 822.552 317.134C827.858 315.715 832.881 313.432 837.361 310.352C835.918 305.104 833.563 300.122 830.427 295.616ZM796.836 304.376C792.386 302.753 790.054 297.942 791.626 293.63C793.198 289.318 798.08 287.138 802.53 288.761C806.979 290.383 809.312 295.194 807.74 299.506C806.168 303.818 801.285 305.998 796.836 304.376Z" stroke="#01F5AC" />
<path d="M441.705 561.917C440.12 559.636 438.25 557.538 436.106 555.681C434.453 554.253 432.642 552.977 430.693 551.869C429.027 550.919 427.261 550.083 425.391 549.407C423.558 548.739 421.704 548.249 419.847 547.908C417.642 547.501 415.44 547.301 413.263 547.327C410.423 547.36 407.636 547.761 404.957 548.48C401.319 549.452 397.876 551.017 394.805 553.128C395.795 556.726 397.409 560.141 399.559 563.23C401.144 565.511 403.014 567.609 405.158 569.466C406.811 570.895 408.622 572.17 410.571 573.278C412.238 574.228 414.003 575.064 415.873 575.74C417.706 576.408 419.56 576.898 421.417 577.239C423.622 577.646 425.825 577.846 428.001 577.82C430.841 577.787 433.628 577.387 436.307 576.668C439.945 575.695 443.388 574.13 446.459 572.019C445.469 568.421 443.855 565.006 441.705 561.917ZM418.679 567.922C415.628 566.81 414.029 563.512 415.107 560.556C416.185 557.6 419.532 556.106 422.582 557.218C425.632 558.33 427.231 561.628 426.153 564.584C425.076 567.54 421.729 569.034 418.679 567.922Z" stroke="#01F5AC" />
<path d="M482.935 334.781C481.431 334.382 479.871 334.165 478.282 334.15C477.058 334.139 475.822 334.251 474.588 334.485C473.531 334.684 472.474 334.968 471.43 335.358C470.405 335.737 469.435 336.201 468.519 336.728C467.43 337.355 466.416 338.068 465.496 338.869C464.296 339.914 463.251 341.096 462.367 342.375C461.167 344.11 460.264 346.027 459.718 348.043C461.446 349.22 463.375 350.093 465.413 350.632C466.918 351.031 468.478 351.249 470.067 351.264C471.291 351.274 472.527 351.162 473.761 350.928C474.818 350.729 475.875 350.446 476.919 350.056C477.944 349.676 478.913 349.213 479.83 348.685C480.919 348.059 481.933 347.345 482.853 346.544C484.053 345.5 485.098 344.318 485.982 343.039C487.182 341.304 488.085 339.386 488.63 337.371C486.902 336.193 484.974 335.32 482.935 334.781ZM475.281 345.699C473.574 346.331 471.695 345.503 471.083 343.849C470.471 342.196 471.358 340.344 473.064 339.712C474.77 339.081 476.649 339.909 477.262 341.562C477.874 343.215 476.987 345.068 475.281 345.699Z" stroke="#01F5AC" />
<path d="M763.57 22L778.59 63.32L747.98 114.34L733 73.13L763.57 22Z" stroke="#FE3CB0" />
<path d="M387.752 778L395 797.689L380.229 822L373 802.363L387.752 778Z" stroke="#FE3CB0" />
<path d="M387.752 -22L395 -2.31102L380.229 22L373 2.36344L387.752 -22Z" stroke="#FE3CB0" />
<path d="M71.8827 469.451L85.3622 485.529L79.6829 513.403L66.2393 497.368L71.8827 469.451Z" stroke="#FE3CB0" />
<path d="M406.864 111.724C405.162 111.036 403.264 111.054 401.586 111.776C399.907 112.498 398.589 113.863 397.919 115.573L397.286 117.185L395.68 116.536C394.836 116.181 393.931 116.001 393.018 115.999C392.105 115.997 391.201 116.182 390.362 116.538C389.523 116.894 388.762 117.412 388.127 118.065C387.491 118.719 386.992 119.494 386.654 120.348C386.319 121.2 386.156 122.111 386.177 123.034C386.196 123.952 386.394 124.86 386.766 125.703C387.134 126.547 387.667 127.306 388.329 127.948C388.993 128.584 389.773 129.085 390.626 129.417L392.231 130.066L405.059 135.253L410.114 122.372L410.747 120.76C411.417 119.051 411.385 117.14 410.656 115.444C409.926 113.748 408.561 112.411 406.858 111.722L406.864 111.724Z" stroke="#0969B7" />
<path d="M730.572 695.433C730.028 693.679 728.815 692.221 727.193 691.378C725.572 690.534 723.682 690.377 721.933 690.939L720.284 691.468L719.772 689.814C719.512 688.936 719.08 688.121 718.503 687.412C717.927 686.704 717.213 686.121 716.406 685.696C715.599 685.271 714.718 685.01 713.809 684.93C712.901 684.851 711.985 684.955 711.11 685.233C710.238 685.513 709.429 685.963 708.728 686.563C708.028 687.158 707.45 687.886 707.033 688.707C706.611 689.526 706.361 690.419 706.282 691.338C706.21 692.254 706.315 693.175 706.597 694.046L707.11 695.7L711.205 708.917L724.38 704.686L726.029 704.156C727.777 703.594 729.237 702.361 730.089 700.723C730.941 699.085 731.113 697.182 730.57 695.428L730.572 695.433Z" stroke="#0969B7" />
<path d="M221.08 237.08C219.587 236.012 217.738 235.585 215.937 235.894C214.136 236.203 212.535 237.221 211.482 238.726L210.49 240.145L209.081 239.138C208.344 238.595 207.506 238.208 206.618 237.992C205.731 237.777 204.809 237.744 203.91 237.894C203.011 238.044 202.15 238.369 201.379 238.855C200.608 239.342 199.941 239.979 199.412 240.729C198.888 241.479 198.516 242.327 198.32 243.228C198.123 244.126 198.103 245.055 198.267 245.961C198.427 246.868 198.767 247.731 199.26 248.51C199.757 249.284 200.398 249.954 201.149 250.476L202.558 251.483L213.814 259.532L221.745 248.193L222.738 246.774C223.791 245.269 224.207 243.404 223.895 241.584C223.583 239.765 222.569 238.145 221.075 237.077L221.08 237.08Z" stroke="#0969B7" />
<path d="M150.019 657.882C147.691 654.352 144.062 651.891 139.919 651.04C135.775 650.189 131.47 651.02 127.94 653.347L124.61 655.542L122.415 652.213C121.279 650.438 119.796 648.908 118.063 647.705C116.33 646.502 114.369 645.66 112.304 645.226C110.239 644.791 108.111 644.763 106.04 645.154C103.969 645.545 101.998 646.345 100.229 647.503C98.4696 648.662 96.9576 650.159 95.7796 651.918C94.6036 653.667 93.7815 655.632 93.3766 657.703C92.9618 659.771 92.9744 661.897 93.3853 663.972C93.808 666.04 94.6293 668.005 95.8127 669.749L98.0076 673.079L115.544 699.681L142.146 682.145L145.476 679.95C149.006 677.622 151.467 673.993 152.318 669.85C153.169 665.706 152.338 661.401 150.011 657.871L150.019 657.882Z" stroke="#0969B7" />
<path d="M630.83 669.37C632.19 664.29 631.48 658.88 628.85 654.32L611.67 664.24C613.4 661.25 614.34 657.83 614.34 654.32C614.34 649.06 612.25 644.02 608.53 640.3C604.81 636.58 599.77 634.49 594.51 634.49V654.33C592.78 651.34 590.3 648.82 587.25 647.06C582.7 644.43 577.28 643.72 572.2 645.08C567.12 646.44 562.79 649.76 560.16 654.32L577.34 664.24C573.89 664.24 570.46 665.13 567.42 666.89C562.87 669.52 559.54 673.85 558.18 678.93C556.82 684.01 557.53 689.42 560.16 693.98L577.34 684.06C575.61 687.05 574.67 690.47 574.67 693.98C574.67 699.24 576.76 704.28 580.48 708C584.2 711.72 589.24 713.81 594.5 713.81V693.97C596.23 696.96 598.71 699.48 601.76 701.24C606.31 703.87 611.73 704.58 616.81 703.22C621.89 701.86 626.22 698.54 628.85 693.98L611.67 684.06C615.12 684.06 618.55 683.17 621.59 681.41C626.14 678.78 629.47 674.45 630.83 669.37Z" stroke="#46E6FF" />
<path d="M109.425 74.4624C110.583 70.1715 109.978 65.6017 107.739 61.75L93.1132 70.1292C94.586 67.6036 95.3863 64.7148 95.3863 61.75C95.3863 57.307 93.607 53.0498 90.44 49.9076C87.273 46.7654 82.9823 45 78.5043 45V61.7584C77.0314 59.2329 74.9201 57.1043 72.3235 55.6176C68.4499 53.3961 63.8357 52.7964 59.5109 53.9452C55.1861 55.0939 51.4998 57.8983 49.2608 61.75L63.8868 70.1292C60.9497 70.1292 58.0296 70.881 55.4415 72.3676C51.5679 74.5891 48.733 78.2466 47.5751 82.5376C46.4173 86.8285 47.0218 91.3983 49.2608 95.25L63.8868 86.8708C62.414 89.3964 61.6137 92.2852 61.6137 95.25C61.6137 99.693 63.393 103.95 66.56 107.092C69.727 110.235 74.0177 112 78.4957 112V95.2416C79.9686 97.7671 82.0799 99.8957 84.6765 101.382C88.55 103.604 93.1643 104.204 97.4891 103.055C101.814 101.906 105.5 99.1017 107.739 95.25L93.1132 86.8708C96.0503 86.8708 98.9704 86.119 101.558 84.6324C105.432 82.4109 108.267 78.7534 109.425 74.4624Z" stroke="#46E6FF" />
<path d="M588.568 218.058C590.034 216.346 590.761 214.124 590.589 211.875L582.113 212.527C583.335 211.692 584.331 210.544 584.981 209.188C585.955 207.155 586.081 204.82 585.332 202.694C584.583 200.567 583.022 198.826 580.989 197.852L577.316 205.52C577.201 204.044 576.709 202.611 575.856 201.366C574.584 199.507 572.621 198.229 570.406 197.814C568.191 197.399 565.903 197.88 564.042 199.156L568.845 206.171C567.511 205.532 566.021 205.241 564.52 205.358C562.275 205.532 560.186 206.589 558.72 208.3C557.253 210.012 556.526 212.234 556.698 214.484L565.175 213.831C563.953 214.666 562.956 215.814 562.306 217.17C561.332 219.203 561.207 221.538 561.955 223.665C562.704 225.791 564.265 227.532 566.298 228.506L569.972 220.838C570.087 222.314 570.579 223.747 571.432 224.992C572.703 226.851 574.666 228.129 576.881 228.544C579.097 228.959 581.385 228.478 583.246 227.203L578.443 220.187C579.776 220.826 581.267 221.117 582.767 221C585.013 220.826 587.102 219.769 588.568 218.058Z" stroke="#46E6FF" />
<path d="M307.568 440.058C309.034 438.346 309.761 436.124 309.589 433.875L301.113 434.527C302.335 433.692 303.331 432.544 303.981 431.188C304.955 429.155 305.081 426.82 304.332 424.694C303.583 422.567 302.022 420.826 299.989 419.852L296.316 427.52C296.201 426.044 295.709 424.611 294.856 423.366C293.584 421.507 291.621 420.229 289.406 419.814C287.191 419.399 284.903 419.88 283.042 421.156L287.845 428.171C286.511 427.532 285.021 427.241 283.52 427.358C281.275 427.532 279.186 428.589 277.72 430.3C276.253 432.012 275.526 434.234 275.698 436.484L284.175 435.831C282.952 436.666 281.956 437.814 281.306 439.17C280.332 441.203 280.207 443.538 280.955 445.665C281.704 447.791 283.265 449.532 285.298 450.506L288.972 442.838C289.087 444.314 289.579 445.747 290.432 446.992C291.703 448.851 293.666 450.129 295.881 450.544C298.097 450.959 300.385 450.478 302.246 449.203L297.443 442.187C298.776 442.826 300.266 443.117 301.767 443C304.013 442.826 306.102 441.769 307.568 440.058Z" stroke="#46E6FF" />
<path d="M30.4268 295.616C28.1138 292.289 25.386 289.228 22.2583 286.52C19.8477 284.435 17.2059 282.575 14.363 280.958C11.9313 279.573 9.35525 278.352 6.62812 277.367C3.95344 276.392 1.24903 275.678 -1.45934 275.179C-4.67568 274.587 -7.88922 274.294 -11.0645 274.333C-15.2068 274.381 -19.273 274.965 -23.1815 276.014C-28.4874 277.432 -33.5101 279.716 -37.9905 282.795C-36.5466 288.043 -34.192 293.026 -31.0558 297.532C-28.7428 300.858 -26.015 303.919 -22.8873 306.628C-20.4768 308.712 -17.8349 310.573 -14.992 312.189C-12.5603 313.575 -9.98427 314.795 -7.25713 315.78C-4.58245 316.755 -1.87804 317.47 0.830329 317.968C4.04667 318.561 7.26021 318.853 10.4355 318.815C14.5778 318.766 18.644 318.183 22.5525 317.134C27.8584 315.715 32.8811 313.432 37.3615 310.352C35.9176 305.104 33.563 300.122 30.4268 295.616ZM-3.16411 304.376C-7.61366 302.753 -9.94648 297.942 -8.37425 293.63C-6.80202 289.318 -1.91979 287.138 2.52976 288.761C6.97931 290.383 9.31213 295.194 7.7399 299.506C6.16767 303.818 1.28544 305.998 -3.16411 304.376Z" stroke="#01F5AC" />
</g>
</svg>
