<svg xmlns="http://www.w3.org/2000/svg" class="util-visually-hidden" overflow="visible">
	<symbol id="sbxlogo" viewBox="0 0 140 154" overflow="visible">
		<path d="M33.6 101.3v21h6.8l12.4-21H33.6ZM105 55.8h.1a10.5 10.5 0 1 0 0-21h-2.7L90 55.7h15Zm-71.4-21v23.8l35.5-23.9H33.6Zm71.5 66.6h-3.4l-31.2 21h34.6a10.5 10.5 0 1 0 0-21ZM139 76.2l-26.3 17.7a19.5 19.5 0 0 1-7.6 37.4H57.2l-32.5 22-.7.2c-.6 0-1.1-.5-1.1-1.1 0-.3 0-.5.2-.7l12-20.4h-9.3c-.6 0-1.1-.5-1.1-1.1V93.5c0-.6.5-1.1 1-1.1h40.8c.6 0 1.1.5 1.1 1 0 .3 0 .5-.2.7l-19 32.4L112.8 83H1.1c-.6 0-1-.5-1-1s.1-.9.5-1l24-16.3V26.8c.1-.6.6-1 1.2-1h56.6L107 9 120.3.2l.6-.2a1.1 1.1 0 0 1 1 1.7L107.5 26a19.5 19.5 0 0 1-2.5 38.8H76.3a1.1 1.1 0 0 1-1-1.6l21.3-36-69.8 47h111.7c.6 0 1 .5 1 1s-.2.9-.5 1Z"/>
	</symbol>
	<symbol id="sbxlockup" viewBox="0 0 578 154" overflow="visible">
		<path d="M33.64 101.34v21.02h6.75l12.38-21.02H33.64Zm71.37-45.59h.1a10.5 10.5 0 1 0 0-21.02h-2.7L90.02 55.75h15ZM33.64 34.73v23.91L69.1 34.73H33.64Zm71.47 66.62h-3.45L70.5 122.36h34.61a10.5 10.5 0 1 0 0-21.02Zm33.86-25.17L112.69 93.9a19.47 19.47 0 0 1-7.58 37.42H57.2l-32.55 21.96c-.19.13-.4.21-.65.21-.61 0-1.12-.51-1.12-1.12 0-.24.07-.44.19-.62L35.1 131.3h-9.33c-.61 0-1.1-.5-1.1-1.1V93.49c0-.62.5-1.12 1.12-1.12h40.74c.6.01 1.08.51 1.08 1.12 0 .25-.09.45-.21.65l-19.05 32.34 64.45-43.47H13.49l-12.36.01c-.62 0-1.13-.5-1.13-1.11 0-.41.23-.77.56-.97l24.11-16.26V26.83c.03-.59.52-1.06 1.11-1.06h56.59l24.74-16.68v-.02L120.28.2a1.12 1.12 0 0 1 1.55 1.55L107.6 25.92a19.49 19.49 0 0 1-2.49 38.8H76.3a1.12 1.12 0 0 1-.98-1.66l21.24-36.04L26.8 74.06h111.65c.62 0 1.12.5 1.12 1.12 0 .43-.24.81-.6 1Zm78.6-19.2-7.92 4.32c-1.23-2.62-3.24-8.12-9.79-7.87-3.65.14-6.98 3.67-6.98 8.67s2.25 8.67 9.44 13c9.66 5.89 14.49 12.22 14.49 22.55 0 11.78-6.76 20-17.82 20s-16.22-7.45-19.32-16.41l8.74-4.32c1.98 4.81 3.91 10.54 9.45 10.62 4.62.07 8.21-3.22 8.21-8.78 0-5-2.04-8.67-10.09-13.33-8.48-5-13.84-11.78-13.84-22.22 0-11.33 7.94-19.89 17.39-19.89 12.84 0 16.68 10.54 18.03 13.67Zm14.41-12.6h14.12c12.86 0 20.77 9 20.77 23.67s-7.8 24-20.55 24h-3.37v24.22h-10.96V44.38Zm10.96 37.33h2.53c6.32 0 10.01-5 10.01-13.67s-3.69-13.33-10.12-13.33h-2.42v27Zm60.18 18.45h-15.71l-3.27 16.11H273.6l15.81-71.89h12.33l15.6 71.89h-10.96l-3.27-16.11Zm-13.81-9.89h11.91l-5.8-28.67h-.32l-5.8 28.67Zm41.42-45.89h13.28c13.18 0 21.19 8.56 21.19 22.44 0 8.56-2.74 15.11-7.69 19.22l10.75 30.22h-11.81l-8.75-26.11c-1.37.22-2.74.33-4.11.33h-1.9v25.78h-10.96V44.38Zm10.96 35.89h1.69c6.64 0 10.43-4.67 10.43-13.22 0-8-3.79-12.33-10.43-12.33h-1.69v25.55Zm57.77 6.89-4.85 9v20.11h-10.96V44.38h10.96v34.55l14.12-34.55h12.12l-14.23 31.44 15.71 40.44h-12.54l-10.33-29.11Zm36.99-42.78h16.34c11.07 0 18.55 7.44 18.55 18.67 0 7.11-3.27 13.22-8.43 15.89 5.8 2.44 9.59 8.78 9.59 16.67 0 12.44-8.01 20.67-19.82 20.67h-16.23v-71.9Zm10.75 30.89h4.64c4.95 0 8.12-4.33 8.12-11.11 0-6-3.16-10.11-8.01-10.11h-4.74v21.22Zm4.85 31.33c5.48 0 9.06-4.44 9.06-11.11s-3.58-10.67-9.17-10.67h-4.74v21.78h4.85Zm54.08 10.89c-13.81 0-21.61-13.22-21.61-37.22s7.8-37.11 21.61-37.11 21.61 13.33 21.61 37.22-7.8 37.11-21.61 37.11Zm0-10.89c6.32 0 10.01-9.33 10.01-26.33s-3.69-26.22-10.01-26.22-10.01 9.33-10.01 26.22 3.58 26.33 10.01 26.33Zm44.58-26.66-14.12-35.55h12.44l8.96 25.67 8.33-25.67h11.49L564 80.72l14.12 35.55h-12.33l-9.06-25.78-8.75 25.78H536.6l14.12-36.33Z" />
	</symbol>
	<symbol id="asset-1" height="200" width="200" viewBox="0 0 200 200" overflow="visible">
		<path d="M52 0H4C2 0 0 2 0 4v192c0 2 2 4 4 4h48c2 0 4-2 4-4V4c0-2-2-4-4-4ZM38 178c0 2-2 4-4 4H22c-2 0-4-2-4-4V22c0-2 2-4 4-4h12c2 0 4 2 4 4v156ZM196 0h-48c-2 0-4 2-4 4v192c0 2 2 4 4 4h48c2 0 4-2 4-4V4c0-2-2-4-4-4Zm-14 178c0 2-2 4-4 4h-12c-2 0-4-2-4-4V22c0-2 2-4 4-4h12c2 0 4 2 4 4v156ZM124 0H76c-2 0-4 2-4 4v192c0 2 2 4 4 4h48c2 0 4-2 4-4V4c0-2-2-4-4-4Zm-14 178c0 2-2 4-4 4H94c-2 0-4-2-4-4V22c0-2 2-4 4-4h12c2 0 4 2 4 4v156Z" />
	</symbol>
	<symbol id="asset-2" height="200" width="200" viewBox="0 0 200 200" overflow="visible">
		<path d="M0 6v188c0 3 3 6 6 6h188c3 0 6-3 6-6V6c0-3-3-6-6-6H6C3 0 0 3 0 6Zm174 174H26c-3 0-6-3-6-6V26c0-3 3-6 6-6h148c3 0 6 3 6 6v148c0 3-3 6-6 6Z"/>
		<path d="M40 46v108c0 3 3 6 6 6h108c3 0 6-3 6-6V46c0-3-3-6-6-6H46c-3 0-6 3-6 6Zm94 94H66c-3 0-6-3-6-6V66c0-3 3-6 6-6h68c3 0 6 3 6 6v68c0 3-3 6-6 6Z"/>
		<rect width="40" height="40" x="80" y="80" rx="6" ry="6"/>
	</symbol>
	<symbol id="asset-3" height="200" width="200" viewBox="0 0 200 200" overflow="visible">
		<path d="M194 0H6C3 0 0 3 0 6v188c0 3 3 6 6 6h14V26c0-3 3-6 6-6h174V6c0-3-3-6-6-6Z" />
		<path d="M200 40H46c-3 0-6 3-6 6v154h20V66c0-3 3-6 6-6h134V40Z" />
		<path d="M126 120h73l1 1v73c0 3-3 6-6 6h-73l-1-1v-73c0-3 3-6 6-6Z" />
		<path d="M200 80H86c-3 0-6 3-6 6v114h20v-94c0-3 3-6 6-6h94V80Z" />
	</symbol>
	<symbol id="asset-4" height="200" width="200" viewBox="0 0 200 200" overflow="visible">
		<circle cx="173.9" cy="131" r="25"/>
		<path d="M196 189 73 114a47 47 0 0 0-73 39c0 26 21 47 47 47h146c6 0 8-8 3-11ZM47 178a25 25 0 1 1 0-50 25 25 0 0 1 0 50Z"/>
		<circle cx="173.9" cy="25" r="25"/>
		<path d="M196 83 73 8A47 47 0 0 0 0 47c0 26 21 47 47 47h146c6 0 8-8 3-11ZM47 72a25 25 0 1 1 0-50 25 25 0 0 1 0 50Z"/>
	</symbol>
	<symbol id="asset-5" height="200" width="200" viewBox="0 0 200 200" overflow="visible">
		<path d="M194 0h-81l40 40h-51l58 58V47l40 40V6c0-3-3-6-6-6ZM87 0H6C3 0 0 3 0 6v81l40-40v51l58-58H47L87 0Zm73 102-58 58h51l-40 40h81c3 0 6-3 6-6v-81l-40 40v-51Zm-120 0v51L0 113v81c0 3 3 6 6 6h81l-40-40h51l-58-58Z"/>
		<rect width="46" height="46" x="77" y="77" rx="6" ry="6"/>
	</symbol>
	<symbol id="asset-6" height="200" width="200" viewBox="0 0 200 200" overflow="visible">
		<path d="M0 47a47 47 0 1 0 94 0 47 47 0 0 0-94 0Zm52-27a27 27 0 0 1 0 54c-3 0-5-2-5-4V24c0-2 2-4 5-4ZM153 0a47 47 0 1 0 0 94 47 47 0 0 0 0-94Zm27 52a27 27 0 0 1-54 0c0-3 2-5 4-5h46c2 0 4 2 4 5Zm20 101a47 47 0 1 0-94 0 47 47 0 0 0 94 0Zm-52 27a27 27 0 0 1 0-54c3 0 5 2 5 4v46c0 2-2 4-5 4ZM47 200a47 47 0 1 0 0-94 47 47 0 0 0 0 94Zm-27-52a27 27 0 0 1 54 0c0 3-2 5-4 5H24c-2 0-4-2-4-5Z"/>
	</symbol>
	<symbol id="asset-7" height="200" width="200" viewBox="0 0 200 200" overflow="visible">
		<path d="M52 0H4C2 0 0 2 0 4v48c0 2 2 4 4 4h48c2 0 4-2 4-4V4c0-2-2-4-4-4ZM38 34c0 2-2 4-4 4H22c-2 0-4-2-4-4V22c0-2 2-4 4-4h12c2 0 4 2 4 4v12Zm158 110h-48c-2 0-4 2-4 4v48c0 2 2 4 4 4h48c2 0 4-2 4-4v-48c0-2-2-4-4-4Zm-14 34c0 2-2 4-4 4h-12c-2 0-4-2-4-4v-12c0-2 2-4 4-4h12c2 0 4 2 4 4v12ZM52 72H4c-2 0-4 2-4 4v120c0 2 2 4 4 4h48c2 0 4-2 4-4V76c0-2-2-4-4-4ZM38 178c0 2-2 4-4 4H22c-2 0-4-2-4-4V94c0-2 2-4 4-4h12c2 0 4 2 4 4v84ZM196 0h-48c-2 0-4 2-4 4v120c0 2 2 4 4 4h48c2 0 4-2 4-4V4c0-2-2-4-4-4Zm-14 106c0 2-2 4-4 4h-12c-2 0-4-2-4-4V22c0-2 2-4 4-4h12c2 0 4 2 4 4v84ZM124 0H76c-2 0-4 2-4 4v192c0 2 2 4 4 4h48c2 0 4-2 4-4V4c0-2-2-4-4-4Zm-14 178c0 2-2 4-4 4H94c-2 0-4-2-4-4V22c0-2 2-4 4-4h12c2 0 4 2 4 4v156Z" />
	</symbol>
	<symbol id="asset-8" height="200" width="200" viewBox="0 0 200 200" overflow="visible">
		<path d="M0 148v48c0 2 2 4 4 4h192c2 0 4-2 4-4v-48c0-2-2-4-4-4H4c-2 0-4 2-4 4Zm178 14c2 0 4 2 4 4v12c0 2-2 4-4 4H22c-2 0-4-2-4-4v-12c0-2 2-4 4-4h156ZM0 4v48c0 2 2 4 4 4h192c2 0 4-2 4-4V4c0-2-2-4-4-4H4C2 0 0 2 0 4Zm178 14c2 0 4 2 4 4v12c0 2-2 4-4 4H22c-2 0-4-2-4-4V22c0-2 2-4 4-4h156ZM0 76v48c0 2 2 4 4 4h192c2 0 4-2 4-4V76c0-2-2-4-4-4H4c-2 0-4 2-4 4Zm178 14c2 0 4 2 4 4v12c0 2-2 4-4 4H22c-2 0-4-2-4-4V94c0-2 2-4 4-4h156Z"/>
	</symbol>
	<symbol id="asset-9" height="200" width="200" viewBox="0 0 200 200" overflow="visible">
		<rect width="56" height="56" y="144" rx="6" ry="6"/>
		<rect width="56" height="56" rx="6" ry="6"/>
		<rect width="56" height="56" x="144" y="144" rx="6" ry="6"/>
		<rect width="56" height="56" x="144" rx="6" ry="6"/>
		<rect width="56" height="56" x="72" y="144" rx="6" ry="6"/>
		<rect width="56" height="56" x="72" rx="6" ry="6"/>
		<path d="M0 76v48c0 2 2 4 4 4h192c2 0 4-2 4-4V76c0-2-2-4-4-4H4c-2 0-4 2-4 4Zm178 14c2 0 4 2 4 4v12c0 2-2 4-4 4H22c-2 0-4-2-4-4V94c0-2 2-4 4-4h156Z" />
	</symbol>
	<symbol id="asset-10" height="200" width="200" viewBox="0 0 200 200" overflow="visible">
		<path d="M5 197 198 58l2-5V6c0-3-3-4-5-3L2 142l-2 5v47c0 3 3 4 5 3Zm195-3v-44c0-3-3-4-5-3l-65 48c-3 1-1 5 2 5h62c3 0 6-3 6-6ZM5 125 170 5c3-1 1-5-2-5h-66l-4 1L2 70l-2 5v47c0 3 3 4 5 3Zm191-50L30 195c-2 1-1 5 2 5h66l4-1 96-69 2-5V78c0-3-2-4-4-3ZM0 6v44c0 3 3 4 5 3L70 5c3-1 1-5-2-5H6C3 0 0 3 0 6Z"/>
	</symbol>
	<symbol id="asset-11" height="200" width="200" viewBox="0 0 200 200" overflow="visible">
		<path d="M194 0H6C3 0 0 3 0 6v80c0 3 3 6 6 6h188c3 0 6-3 6-6V6c0-3-3-6-6-6Zm-14 66c0 3-3 6-6 6H26c-3 0-6-3-6-6V26c0-3 3-6 6-6h148c3 0 6 3 6 6v40Z"/>
		<rect width="120" height="16" x="40" y="38" rx="6" ry="6"/>
		<path d="M194 108H6c-3 0-6 3-6 6v80c0 3 3 6 6 6h188c3 0 6-3 6-6v-80c0-3-3-6-6-6Zm-14 66c0 3-3 6-6 6H26c-3 0-6-3-6-6v-40c0-3 3-6 6-6h148c3 0 6 3 6 6v40Z"/>
		<rect width="120" height="16" x="40" y="146" rx="6" ry="6"/>
	</symbol>
	<symbol id="asset-12" height="200" width="200" viewBox="0 0 200 200" overflow="visible">
		<path d="M46 0H6C3 0 0 3 0 6v80c0 3 3 6 6 6h80c3 0 6-3 6-6V46C92 21 71 0 46 0Zm26 46v22c0 2-2 4-4 4H24c-2 0-4-2-4-4V24c0-2 2-4 4-4h22c14 0 26 12 26 26Z"/>
		<path d="M46 38h-6l-2 2v12l2 2h12l2-2v-6c0-4-4-8-8-8Zm154 8V6c0-3-3-6-6-6h-80c-3 0-6 3-6 6v80c0 3 3 6 6 6h40c25 0 46-21 46-46Zm-46 26h-22c-2 0-4-2-4-4V24c0-2 2-4 4-4h44c2 0 4 2 4 4v22c0 14-12 26-26 26Z"/>
		<path d="M162 46v-6l-2-2h-12l-2 2v12l2 2h6c4 0 8-4 8-8Zm-8 154h40c3 0 6-3 6-6v-80c0-3-3-6-6-6h-80c-3 0-6 3-6 6v40c0 25 21 46 46 46Zm-26-46v-22c0-2 2-4 4-4h44c2 0 4 2 4 4v44c0 2-2 4-4 4h-22c-14 0-26-12-26-26Z"/>
		<path d="M154 162h6l2-2v-12l-2-2h-12l-2 2v6c0 4 4 8 8 8ZM0 154v40c0 3 3 6 6 6h80c3 0 6-3 6-6v-80c0-3-3-6-6-6H46c-25 0-46 21-46 46Zm46-26h22c2 0 4 2 4 4v44c0 2-2 4-4 4H24c-2 0-4-2-4-4v-22c0-14 12-26 26-26Z"/>
		<path d="M38 154v6l2 2h12l2-2v-12l-2-2h-6c-4 0-8 4-8 8Z"/>
	</symbol>
	<symbol id="asset-13" height="200" width="200" viewBox="0 0 200 200" overflow="visible">
		<path d="M5 69 88 6c2-2 1-6-2-6H6C3 0 0 3 0 6v61c0 2 3 4 5 2Zm17-59a12 12 0 1 1 0 24 12 12 0 0 1 0-24Zm65 13L4 86c-2 2-1 6 2 6h80c3 0 6-3 6-6V25c0-2-3-4-5-2ZM70 82a12 12 0 1 1 0-24 12 12 0 0 1 0 24Zm43-13 83-63c2-2 1-6-2-6h-80c-3 0-6 3-6 6v61c0 2 3 4 5 2Zm17-59a12 12 0 1 1 0 24 12 12 0 0 1 0-24Zm65 13-83 63c-2 2-1 6 2 6h80c3 0 6-3 6-6V25c0-2-3-4-5-2Zm-17 59a12 12 0 1 1 0-24 12 12 0 0 1 0 24Zm-90 32c2-2 1-6-2-6H6c-3 0-6 3-6 6v61c0 2 3 4 5 2l83-63Zm-66 4a12 12 0 1 1 0 24 12 12 0 0 1 0-24Zm65 13L4 194c-2 2-1 6 2 6h80c3 0 6-3 6-6v-61c0-2-3-4-5-2Zm-17 59a12 12 0 1 1 0-24 12 12 0 0 1 0 24Zm126-76c2-2 1-6-2-6h-80c-3 0-6 3-6 6v61c0 2 3 4 5 2l83-63Zm-66 4a12 12 0 1 1 0 24 12 12 0 0 1 0-24Zm65 13-83 63c-2 2-1 6 2 6h80c3 0 6-3 6-6v-61c0-2-3-4-5-2Zm-17 59a12 12 0 1 1 0-24 12 12 0 0 1 0 24Z"/>
	</symbol>
	<symbol id="asset-14" height="200" width="200" viewBox="0 0 200 200" overflow="visible">
		<circle cx="69" cy="173.9" r="25"/>
		<path d="M11 196 86 73A47 47 0 1 0 0 47v146c0 6 8 8 11 3ZM22 47a25 25 0 1 1 50 0 25 25 0 0 1-50 0Z"/>
		<circle cx="175" cy="173.9" r="25"/>
		<path d="m117 196 75-123a47 47 0 1 0-86-26v146c0 6 8 8 11 3Zm11-149a25 25 0 1 1 50 0 25 25 0 0 1-50 0Z"/>
	</symbol>
	<symbol id="asset-15" height="200" width="200" viewBox="0 0 200 200" overflow="visible">
		<path d="M46 0H6C3 0 0 3 0 6v82c0 3 3 6 6 6h41a47 47 0 1 0-1-94Zm1 74a27 27 0 1 1 0-54 27 27 0 0 1 0 54Z"/>
		<circle cx="47" cy="47" r="7"/>
		<path d="M200 46V6c0-3-3-6-6-6h-82c-3 0-6 3-6 6v41c0 26 21 46 46 47 26 1 48-21 48-48Zm-74 1a27 27 0 1 1 54 0 27 27 0 0 1-54 0Z"/>
		<circle cx="153" cy="47" r="7"/>
		<path d="M154 200h40c3 0 6-3 6-6v-82c0-3-3-6-6-6h-41c-26 0-46 21-47 46-1 26 21 48 48 48Zm-1-74a27 27 0 1 1 0 54 27 27 0 0 1 0-54Z"/>
		<circle cx="153" cy="153" r="7"/>
		<path d="M0 154v40c0 3 3 6 6 6h82c3 0 6-3 6-6v-41a47 47 0 1 0-94 1Zm74-1a27 27 0 1 1-54 0 27 27 0 0 1 54 0Z"/>
		<circle cx="47" cy="153" r="7"/>
	</symbol>
	<symbol id="asset-16" height="200" width="200" viewBox="0 0 200 200" overflow="visible">
		<path d="M196 102h-62a2 2 0 0 1-2-4l46-78L27 122h173v-20h-4Z"/>
		<path d="M197 37h-6l-27 45h36V37h-3ZM22 37V20c0-2 1-3 2-3h123l26-17H6C3 0 0 3 0 6v111l22-15V37Z"/>
		<path d="M42 37v52l77-52H42zm0 144v19h30l11-19H42z"/>
		<path d="m22 164 2-2h89l2 2v2l-20 34h32l73-49v-9H0v52c0 3 3 6 6 6h16v-36Zm167 17-27 19h32c3 0 6-3 6-6v-12l-3-1h-8Z"/>
	</symbol>
</svg>
