<svg xmlns="http://www.w3.org/2000/svg" class="util-visually-hidden" overflow="visible">
	<symbol id="sbxlogo" viewBox="0 0 140 154" overflow="visible">
		<path d="M33.6 101.3v21h6.8l12.4-21H33.6ZM105 55.8h.1a10.5 10.5 0 1 0 0-21h-2.7L90 55.7h15Zm-71.4-21v23.8l35.5-23.9H33.6Zm71.5 66.6h-3.4l-31.2 21h34.6a10.5 10.5 0 1 0 0-21ZM139 76.2l-26.3 17.7a19.5 19.5 0 0 1-7.6 37.4H57.2l-32.5 22-.7.2c-.6 0-1.1-.5-1.1-1.1 0-.3 0-.5.2-.7l12-20.4h-9.3c-.6 0-1.1-.5-1.1-1.1V93.5c0-.6.5-1.1 1-1.1h40.8c.6 0 1.1.5 1.1 1 0 .3 0 .5-.2.7l-19 32.4L112.8 83H1.1c-.6 0-1-.5-1-1s.1-.9.5-1l24-16.3V26.8c.1-.6.6-1 1.2-1h56.6L107 9 120.3.2l.6-.2a1.1 1.1 0 0 1 1 1.7L107.5 26a19.5 19.5 0 0 1-2.5 38.8H76.3a1.1 1.1 0 0 1-1-1.6l21.3-36-69.8 47h111.7c.6 0 1 .5 1 1s-.2.9-.5 1Z"/>
	</symbol>
	<symbol id="sbxlockup" viewBox="0 0 578 154" overflow="visible">
		<path d="M34 101v21h6l13-21H34Zm71-45a11 11 0 1 0 0-21h-3L90 56h15ZM34 35v24l35-24H34Zm71 66h-3l-32 21h35a11 11 0 1 0 0-21Zm34-25-26 18a19 19 0 0 1-8 37H57l-32 22h-1l-1-1 12-21h-9l-1-1V93l1-1h41l1 1-1 1-19 32 65-43H1l-1-1 1-1 24-16V27l1-1h56l25-17 13-9h1a1 1 0 0 1 1 2l-14 24a19 19 0 0 1-3 39H76a1 1 0 0 1-1-2l22-36-70 47h111l2 1-1 1Zm79-19-8 4c-2-2-4-8-10-8-4 1-7 4-7 9s2 9 9 13c10 6 15 12 15 23s-7 20-18 20-16-8-19-17l8-4c2 5 4 10 10 11 4 0 8-4 8-9s-2-9-10-14-14-11-14-22 8-20 18-20c12 0 16 11 18 14Zm14-13h14c13 0 21 9 21 24s-8 24-21 24h-3v24h-11V44Zm11 38h2c7 0 10-5 10-14s-3-13-10-13h-2v27Zm60 18h-16l-3 16h-10l15-72h13l15 72h-11l-3-16Zm-14-10h12l-6-28-6 28Zm42-46h13c13 0 21 9 21 23 0 8-3 15-7 19l10 30h-12l-8-26h-6v26h-11V44Zm11 36h1c7 0 11-4 11-13 0-8-4-12-11-12h-1v25Zm57 7-4 9v20h-11V44h11v35l14-35h12l-14 32 15 40h-12l-11-29Zm37-43h17c11 0 18 8 18 19 0 7-3 13-8 16 6 2 9 9 9 17 0 12-8 20-19 20h-17V44Zm11 31h5c5 0 8-4 8-11 0-6-3-10-8-10h-5v21Zm5 32c6 0 9-5 9-12s-3-10-9-10h-5v22h5Zm54 10c-14 0-21-13-21-37s7-37 21-37 22 13 22 37-8 37-22 37Zm0-10c6 0 10-10 10-27s-4-26-10-26-10 9-10 26 4 27 10 27Zm45-27-14-36h12l9 26 8-26h12l-14 37 14 35h-12l-9-26-9 26h-11l14-36Z" />
	</symbol>
	<symbol id="asset-1" height="200" width="200" viewBox="0 0 200 200" overflow="visible">
		<path d="M52 0H4C2 0 0 2 0 4v192c0 2 2 4 4 4h48c2 0 4-2 4-4V4c0-2-2-4-4-4ZM38 178c0 2-2 4-4 4H22c-2 0-4-2-4-4V22c0-2 2-4 4-4h12c2 0 4 2 4 4v156ZM196 0h-48c-2 0-4 2-4 4v192c0 2 2 4 4 4h48c2 0 4-2 4-4V4c0-2-2-4-4-4Zm-14 178c0 2-2 4-4 4h-12c-2 0-4-2-4-4V22c0-2 2-4 4-4h12c2 0 4 2 4 4v156ZM124 0H76c-2 0-4 2-4 4v192c0 2 2 4 4 4h48c2 0 4-2 4-4V4c0-2-2-4-4-4Zm-14 178c0 2-2 4-4 4H94c-2 0-4-2-4-4V22c0-2 2-4 4-4h12c2 0 4 2 4 4v156Z" />
	</symbol>
	<symbol id="asset-2" height="200" width="200" viewBox="0 0 200 200" overflow="visible">
		<path d="M0 6v188c0 3 3 6 6 6h188c3 0 6-3 6-6V6c0-3-3-6-6-6H6C3 0 0 3 0 6Zm174 174H26c-3 0-6-3-6-6V26c0-3 3-6 6-6h148c3 0 6 3 6 6v148c0 3-3 6-6 6Z"/>
		<path d="M40 46v108c0 3 3 6 6 6h108c3 0 6-3 6-6V46c0-3-3-6-6-6H46c-3 0-6 3-6 6Zm94 94H66c-3 0-6-3-6-6V66c0-3 3-6 6-6h68c3 0 6 3 6 6v68c0 3-3 6-6 6Z"/>
		<rect width="40" height="40" x="80" y="80" rx="6" ry="6"/>
	</symbol>
	<symbol id="asset-3" height="200" width="200" viewBox="0 0 200 200" overflow="visible">
		<path d="M194 0H6C3 0 0 3 0 6v188c0 3 3 6 6 6h14V26c0-3 3-6 6-6h174V6c0-3-3-6-6-6Z" />
		<path d="M200 40H46c-3 0-6 3-6 6v154h20V66c0-3 3-6 6-6h134V40Z" />
		<path d="M126 120h73l1 1v73c0 3-3 6-6 6h-73l-1-1v-73c0-3 3-6 6-6Z" />
		<path d="M200 80H86c-3 0-6 3-6 6v114h20v-94c0-3 3-6 6-6h94V80Z" />
	</symbol>
	<symbol id="asset-4" height="200" width="200" viewBox="0 0 200 200" overflow="visible">
		<circle cx="173.9" cy="131" r="25"/>
		<path d="M196 189 73 114a47 47 0 0 0-73 39c0 26 21 47 47 47h146c6 0 8-8 3-11ZM47 178a25 25 0 1 1 0-50 25 25 0 0 1 0 50Z"/>
		<circle cx="173.9" cy="25" r="25"/>
		<path d="M196 83 73 8A47 47 0 0 0 0 47c0 26 21 47 47 47h146c6 0 8-8 3-11ZM47 72a25 25 0 1 1 0-50 25 25 0 0 1 0 50Z"/>
	</symbol>
	<symbol id="asset-5" height="200" width="200" viewBox="0 0 200 200" overflow="visible">
		<path d="M194 0h-81l40 40h-51l58 58V47l40 40V6c0-3-3-6-6-6ZM87 0H6C3 0 0 3 0 6v81l40-40v51l58-58H47L87 0Zm73 102-58 58h51l-40 40h81c3 0 6-3 6-6v-81l-40 40v-51Zm-120 0v51L0 113v81c0 3 3 6 6 6h81l-40-40h51l-58-58Z"/>
		<rect width="46" height="46" x="77" y="77" rx="6" ry="6"/>
	</symbol>
	<symbol id="asset-6" height="200" width="200" viewBox="0 0 200 200" overflow="visible">
		<path d="M0 47a47 47 0 1 0 94 0 47 47 0 0 0-94 0Zm52-27a27 27 0 0 1 0 54c-3 0-5-2-5-4V24c0-2 2-4 5-4ZM153 0a47 47 0 1 0 0 94 47 47 0 0 0 0-94Zm27 52a27 27 0 0 1-54 0c0-3 2-5 4-5h46c2 0 4 2 4 5Zm20 101a47 47 0 1 0-94 0 47 47 0 0 0 94 0Zm-52 27a27 27 0 0 1 0-54c3 0 5 2 5 4v46c0 2-2 4-5 4ZM47 200a47 47 0 1 0 0-94 47 47 0 0 0 0 94Zm-27-52a27 27 0 0 1 54 0c0 3-2 5-4 5H24c-2 0-4-2-4-5Z"/>
	</symbol>
	<symbol id="asset-7" height="200" width="200" viewBox="0 0 200 200" overflow="visible">
		<path d="M52 0H4C2 0 0 2 0 4v48c0 2 2 4 4 4h48c2 0 4-2 4-4V4c0-2-2-4-4-4ZM38 34c0 2-2 4-4 4H22c-2 0-4-2-4-4V22c0-2 2-4 4-4h12c2 0 4 2 4 4v12Zm158 110h-48c-2 0-4 2-4 4v48c0 2 2 4 4 4h48c2 0 4-2 4-4v-48c0-2-2-4-4-4Zm-14 34c0 2-2 4-4 4h-12c-2 0-4-2-4-4v-12c0-2 2-4 4-4h12c2 0 4 2 4 4v12ZM52 72H4c-2 0-4 2-4 4v120c0 2 2 4 4 4h48c2 0 4-2 4-4V76c0-2-2-4-4-4ZM38 178c0 2-2 4-4 4H22c-2 0-4-2-4-4V94c0-2 2-4 4-4h12c2 0 4 2 4 4v84ZM196 0h-48c-2 0-4 2-4 4v120c0 2 2 4 4 4h48c2 0 4-2 4-4V4c0-2-2-4-4-4Zm-14 106c0 2-2 4-4 4h-12c-2 0-4-2-4-4V22c0-2 2-4 4-4h12c2 0 4 2 4 4v84ZM124 0H76c-2 0-4 2-4 4v192c0 2 2 4 4 4h48c2 0 4-2 4-4V4c0-2-2-4-4-4Zm-14 178c0 2-2 4-4 4H94c-2 0-4-2-4-4V22c0-2 2-4 4-4h12c2 0 4 2 4 4v156Z" />
	</symbol>
	<symbol id="asset-8" height="200" width="200" viewBox="0 0 200 200" overflow="visible">
		<path d="M0 148v48c0 2 2 4 4 4h192c2 0 4-2 4-4v-48c0-2-2-4-4-4H4c-2 0-4 2-4 4Zm178 14c2 0 4 2 4 4v12c0 2-2 4-4 4H22c-2 0-4-2-4-4v-12c0-2 2-4 4-4h156ZM0 4v48c0 2 2 4 4 4h192c2 0 4-2 4-4V4c0-2-2-4-4-4H4C2 0 0 2 0 4Zm178 14c2 0 4 2 4 4v12c0 2-2 4-4 4H22c-2 0-4-2-4-4V22c0-2 2-4 4-4h156ZM0 76v48c0 2 2 4 4 4h192c2 0 4-2 4-4V76c0-2-2-4-4-4H4c-2 0-4 2-4 4Zm178 14c2 0 4 2 4 4v12c0 2-2 4-4 4H22c-2 0-4-2-4-4V94c0-2 2-4 4-4h156Z"/>
	</symbol>
	<symbol id="asset-9" height="200" width="200" viewBox="0 0 200 200" overflow="visible">
		<rect width="56" height="56" y="144" rx="6" ry="6"/>
		<rect width="56" height="56" rx="6" ry="6"/>
		<rect width="56" height="56" x="144" y="144" rx="6" ry="6"/>
		<rect width="56" height="56" x="144" rx="6" ry="6"/>
		<rect width="56" height="56" x="72" y="144" rx="6" ry="6"/>
		<rect width="56" height="56" x="72" rx="6" ry="6"/>
		<path d="M0 76v48c0 2 2 4 4 4h192c2 0 4-2 4-4V76c0-2-2-4-4-4H4c-2 0-4 2-4 4Zm178 14c2 0 4 2 4 4v12c0 2-2 4-4 4H22c-2 0-4-2-4-4V94c0-2 2-4 4-4h156Z" />
	</symbol>
	<symbol id="asset-10" height="200" width="200" viewBox="0 0 200 200" overflow="visible">
		<path d="M5 197 198 58l2-5V6c0-3-3-4-5-3L2 142l-2 5v47c0 3 3 4 5 3Zm195-3v-44c0-3-3-4-5-3l-65 48c-3 1-1 5 2 5h62c3 0 6-3 6-6ZM5 125 170 5c3-1 1-5-2-5h-66l-4 1L2 70l-2 5v47c0 3 3 4 5 3Zm191-50L30 195c-2 1-1 5 2 5h66l4-1 96-69 2-5V78c0-3-2-4-4-3ZM0 6v44c0 3 3 4 5 3L70 5c3-1 1-5-2-5H6C3 0 0 3 0 6Z"/>
	</symbol>
	<symbol id="asset-11" height="200" width="200" viewBox="0 0 200 200" overflow="visible">
		<path d="M194 0H6C3 0 0 3 0 6v80c0 3 3 6 6 6h188c3 0 6-3 6-6V6c0-3-3-6-6-6Zm-14 66c0 3-3 6-6 6H26c-3 0-6-3-6-6V26c0-3 3-6 6-6h148c3 0 6 3 6 6v40Z"/>
		<rect width="120" height="16" x="40" y="38" rx="6" ry="6"/>
		<path d="M194 108H6c-3 0-6 3-6 6v80c0 3 3 6 6 6h188c3 0 6-3 6-6v-80c0-3-3-6-6-6Zm-14 66c0 3-3 6-6 6H26c-3 0-6-3-6-6v-40c0-3 3-6 6-6h148c3 0 6 3 6 6v40Z"/>
		<rect width="120" height="16" x="40" y="146" rx="6" ry="6"/>
	</symbol>
	<symbol id="asset-12" height="200" width="200" viewBox="0 0 200 200" overflow="visible">
		<path d="M46 0H6C3 0 0 3 0 6v80c0 3 3 6 6 6h80c3 0 6-3 6-6V46C92 21 71 0 46 0Zm26 46v22c0 2-2 4-4 4H24c-2 0-4-2-4-4V24c0-2 2-4 4-4h22c14 0 26 12 26 26Z"/>
		<path d="M46 38h-6l-2 2v12l2 2h12l2-2v-6c0-4-4-8-8-8Zm154 8V6c0-3-3-6-6-6h-80c-3 0-6 3-6 6v80c0 3 3 6 6 6h40c25 0 46-21 46-46Zm-46 26h-22c-2 0-4-2-4-4V24c0-2 2-4 4-4h44c2 0 4 2 4 4v22c0 14-12 26-26 26Z"/>
		<path d="M162 46v-6l-2-2h-12l-2 2v12l2 2h6c4 0 8-4 8-8Zm-8 154h40c3 0 6-3 6-6v-80c0-3-3-6-6-6h-80c-3 0-6 3-6 6v40c0 25 21 46 46 46Zm-26-46v-22c0-2 2-4 4-4h44c2 0 4 2 4 4v44c0 2-2 4-4 4h-22c-14 0-26-12-26-26Z"/>
		<path d="M154 162h6l2-2v-12l-2-2h-12l-2 2v6c0 4 4 8 8 8ZM0 154v40c0 3 3 6 6 6h80c3 0 6-3 6-6v-80c0-3-3-6-6-6H46c-25 0-46 21-46 46Zm46-26h22c2 0 4 2 4 4v44c0 2-2 4-4 4H24c-2 0-4-2-4-4v-22c0-14 12-26 26-26Z"/>
		<path d="M38 154v6l2 2h12l2-2v-12l-2-2h-6c-4 0-8 4-8 8Z"/>
	</symbol>
	<symbol id="asset-13" height="200" width="200" viewBox="0 0 200 200" overflow="visible">
		<path d="M5 69 88 6c2-2 1-6-2-6H6C3 0 0 3 0 6v61c0 2 3 4 5 2Zm17-59a12 12 0 1 1 0 24 12 12 0 0 1 0-24Zm65 13L4 86c-2 2-1 6 2 6h80c3 0 6-3 6-6V25c0-2-3-4-5-2ZM70 82a12 12 0 1 1 0-24 12 12 0 0 1 0 24Zm43-13 83-63c2-2 1-6-2-6h-80c-3 0-6 3-6 6v61c0 2 3 4 5 2Zm17-59a12 12 0 1 1 0 24 12 12 0 0 1 0-24Zm65 13-83 63c-2 2-1 6 2 6h80c3 0 6-3 6-6V25c0-2-3-4-5-2Zm-17 59a12 12 0 1 1 0-24 12 12 0 0 1 0 24Zm-90 32c2-2 1-6-2-6H6c-3 0-6 3-6 6v61c0 2 3 4 5 2l83-63Zm-66 4a12 12 0 1 1 0 24 12 12 0 0 1 0-24Zm65 13L4 194c-2 2-1 6 2 6h80c3 0 6-3 6-6v-61c0-2-3-4-5-2Zm-17 59a12 12 0 1 1 0-24 12 12 0 0 1 0 24Zm126-76c2-2 1-6-2-6h-80c-3 0-6 3-6 6v61c0 2 3 4 5 2l83-63Zm-66 4a12 12 0 1 1 0 24 12 12 0 0 1 0-24Zm65 13-83 63c-2 2-1 6 2 6h80c3 0 6-3 6-6v-61c0-2-3-4-5-2Zm-17 59a12 12 0 1 1 0-24 12 12 0 0 1 0 24Z"/>
	</symbol>
	<symbol id="asset-14" height="200" width="200" viewBox="0 0 200 200" overflow="visible">
		<circle cx="69" cy="173.9" r="25"/>
		<path d="M11 196 86 73A47 47 0 1 0 0 47v146c0 6 8 8 11 3ZM22 47a25 25 0 1 1 50 0 25 25 0 0 1-50 0Z"/>
		<circle cx="175" cy="173.9" r="25"/>
		<path d="m117 196 75-123a47 47 0 1 0-86-26v146c0 6 8 8 11 3Zm11-149a25 25 0 1 1 50 0 25 25 0 0 1-50 0Z"/>
	</symbol>
	<symbol id="asset-15" height="200" width="200" viewBox="0 0 200 200" overflow="visible">
		<path d="M46 0H6C3 0 0 3 0 6v82c0 3 3 6 6 6h41a47 47 0 1 0-1-94Zm1 74a27 27 0 1 1 0-54 27 27 0 0 1 0 54Z"/>
		<circle cx="47" cy="47" r="7"/>
		<path d="M200 46V6c0-3-3-6-6-6h-82c-3 0-6 3-6 6v41c0 26 21 46 46 47 26 1 48-21 48-48Zm-74 1a27 27 0 1 1 54 0 27 27 0 0 1-54 0Z"/>
		<circle cx="153" cy="47" r="7"/>
		<path d="M154 200h40c3 0 6-3 6-6v-82c0-3-3-6-6-6h-41c-26 0-46 21-47 46-1 26 21 48 48 48Zm-1-74a27 27 0 1 1 0 54 27 27 0 0 1 0-54Z"/>
		<circle cx="153" cy="153" r="7"/>
		<path d="M0 154v40c0 3 3 6 6 6h82c3 0 6-3 6-6v-41a47 47 0 1 0-94 1Zm74-1a27 27 0 1 1-54 0 27 27 0 0 1 54 0Z"/>
		<circle cx="47" cy="153" r="7"/>
	</symbol>
	<symbol id="asset-16" height="200" width="200" viewBox="0 0 200 200" overflow="visible">
		<path d="M196 102h-62a2 2 0 0 1-2-4l46-78L27 122h173v-20h-4Z"/>
		<path d="M197 37h-6l-27 45h36V37h-3ZM22 37V20c0-2 1-3 2-3h123l26-17H6C3 0 0 3 0 6v111l22-15V37Z"/>
		<path d="M42 37v52l77-52H42zm0 144v19h30l11-19H42z"/>
		<path d="m22 164 2-2h89l2 2v2l-20 34h32l73-49v-9H0v52c0 3 3 6 6 6h16v-36Zm167 17-27 19h32c3 0 6-3 6-6v-12l-3-1h-8Z"/>
	</symbol>
</svg>
